<svg width="60" height="64" viewBox="0 0 60 64" fill="none" xmlns="http://www.w3.org/2000/svg">
<g id="1002060451579780462 1">
<g id="Group">
<path id="Vector" d="M43.8398 12.4688C43.1029 12.4688 42.3829 12.6094 41.6967 12.8887C38.7848 14.0662 37.3785 17.3963 38.5579 20.3194C39.4373 22.4794 41.5129 23.8744 43.8492 23.8744C44.5804 23.8744 45.2948 23.7356 45.9735 23.46C47.391 22.8862 48.4973 21.7988 49.0898 20.3944C49.686 18.99 49.701 17.445 49.1292 16.0331C48.2554 13.8675 46.1723 12.4688 43.8398 12.4688ZM46.5473 19.3125C46.2379 20.0362 45.666 20.5988 44.9385 20.895C44.5879 21.0338 44.2204 21.1069 43.851 21.1069C42.6435 21.1069 41.5729 20.3888 41.1248 19.275C40.5154 17.7731 41.241 16.0556 42.7373 15.45C43.0898 15.3075 43.4629 15.2344 43.8398 15.2344C45.0435 15.2344 46.116 15.9563 46.5698 17.0681C46.8604 17.7938 46.8529 18.5906 46.5473 19.3125Z" fill="#00FF38"/>
<path id="Vector_2" d="M19.6091 34.0781C15.0322 34.0781 11.3047 37.8019 11.3047 42.3844C11.3047 46.9556 15.0303 50.6756 19.6091 50.6756C24.1841 50.6756 27.9078 46.9556 27.9078 42.3844C27.9078 37.8038 24.1841 34.0781 19.6091 34.0781ZM19.6091 47.91C16.5566 47.91 14.0703 45.4313 14.0703 42.3844C14.0703 39.33 16.5566 36.8456 19.6091 36.8456C22.6616 36.8456 25.1422 39.33 25.1422 42.3844C25.1422 45.4313 22.6616 47.91 19.6091 47.91Z" fill="#00FF38"/>
<path id="Vector_3" d="M36.7748 38.9262L33.3755 37.6831C33.1767 37.0962 32.9386 36.5244 32.6648 35.9656L34.1855 32.6769C34.5473 31.8987 34.4236 30.9725 33.8705 30.3238C33.2048 29.5325 32.4605 28.79 31.6636 28.1169C31.2661 27.7812 30.7598 27.5937 30.2348 27.5937C29.9217 27.5937 29.618 27.6594 29.3311 27.785C29.3255 27.7887 29.318 27.7925 29.3105 27.7963L26.0217 29.3206C25.4705 29.0506 24.8967 28.8125 24.3098 28.6156L23.0536 25.2012C22.7573 24.4044 22.0167 23.8438 21.1692 23.7706C20.1398 23.6806 19.0767 23.6806 18.0492 23.7706C17.1998 23.8438 16.4592 24.4044 16.1592 25.2087L14.9123 28.6081C14.3292 28.8087 13.7555 29.0469 13.1967 29.3206L9.90234 27.7963C9.89672 27.7925 9.89109 27.7887 9.88547 27.785C9.59672 27.6612 9.29297 27.5937 8.97984 27.5937C8.45297 27.5937 7.94484 27.7831 7.54922 28.1187C6.75047 28.7956 6.00984 29.5381 5.34984 30.3163C4.79484 30.965 4.66922 31.8875 5.02734 32.6731L6.55172 35.9619C6.28172 36.5131 6.04359 37.0869 5.84484 37.6756L2.43984 38.9262C1.63734 39.2206 1.07297 39.9631 0.997969 40.8238C0.917344 41.855 0.917344 42.8975 0.997969 43.9325C1.07109 44.7856 1.63547 45.5281 2.43797 45.8206L5.84109 47.0731C6.03984 47.6581 6.27797 48.23 6.55172 48.785L5.02547 52.0906C4.67297 52.8575 4.79672 53.7725 5.34234 54.4325C6.00797 55.2219 6.75422 55.9663 7.55484 56.645C7.56047 56.6488 7.56422 56.6525 7.56797 56.6562C7.96547 56.9844 8.46609 57.1606 8.97984 57.1606C9.30234 57.1606 9.62484 57.0894 9.90609 56.9563L13.1873 55.4319C13.7386 55.7056 14.3142 55.9419 14.9067 56.1444L16.1592 59.5475C16.4592 60.3594 17.2036 60.92 18.0567 60.9819C18.5798 61.025 19.103 61.0494 19.6073 61.0494C20.1136 61.0494 20.6348 61.025 21.1598 60.9819C22.013 60.9219 22.7573 60.3594 23.0555 59.5438L24.3042 56.15C24.8855 55.9494 25.4592 55.7075 26.018 55.4375L29.3273 56.9675C29.6123 57.0931 29.9161 57.1587 30.2311 57.1587C30.7411 57.1587 31.2436 56.9825 31.6392 56.6581C31.6467 56.6544 31.6542 56.6469 31.6617 56.6394C32.4567 55.9662 33.1992 55.2237 33.863 54.4419C34.4236 53.7931 34.5511 52.8631 34.1855 52.085L32.6648 48.7906C32.9367 48.2319 33.173 47.6581 33.3717 47.0712L36.7748 45.8225C37.5792 45.5262 38.1417 44.7838 38.2167 43.9306C38.2992 42.8994 38.2992 41.8531 38.2148 40.8106C38.1436 39.9631 37.5755 39.2225 36.7748 38.9262ZM35.4848 43.3494L31.778 44.7163C31.3636 44.87 31.0448 45.2094 30.9248 45.6331C30.6811 46.4844 30.3398 47.3131 29.9123 48.0912C29.6986 48.4756 29.6836 48.9406 29.8692 49.3419L31.5248 52.9212C31.0936 53.4069 30.6286 53.8681 30.143 54.2994L26.5617 52.6381C26.1642 52.4544 25.6992 52.4731 25.313 52.6812C24.5255 53.1162 23.6967 53.4594 22.8548 53.7087C22.4311 53.8269 22.0917 54.1438 21.9398 54.5581L20.5861 58.25C19.9223 58.2931 19.2942 58.2931 18.6323 58.25L17.2692 54.5506C17.1155 54.1362 16.7761 53.8194 16.3542 53.6975C15.4842 53.4481 14.6573 53.1031 13.8998 52.6812C13.5117 52.4656 13.0467 52.4469 12.6455 52.6344L9.06797 54.2919C8.57672 53.8606 8.11547 53.3937 7.68984 52.9175L9.34547 49.3306C9.53109 48.9294 9.51234 48.4662 9.29859 48.08C8.86734 47.2981 8.52422 46.475 8.28234 45.6275C8.16047 45.2037 7.84359 44.8587 7.42734 44.7087L3.72984 43.3494C3.69234 42.7006 3.69234 42.0462 3.72984 41.4012L7.43484 40.0381C7.84734 39.8881 8.16234 39.545 8.28797 39.125C8.53734 38.2569 8.87859 37.4319 9.30234 36.6669C9.51609 36.2787 9.53484 35.8137 9.34922 35.4144L7.69359 31.8406C8.12109 31.3587 8.58422 30.8975 9.07547 30.4588L12.6567 32.1162C13.0561 32.3037 13.5211 32.285 13.9073 32.0731C14.6911 31.6381 15.5161 31.295 16.358 31.055C16.7836 30.9331 17.1248 30.6163 17.2767 30.2L18.6323 26.5006C19.2811 26.4613 19.9373 26.4613 20.5861 26.5006L21.9492 30.2075C22.1011 30.6275 22.4423 30.9444 22.8661 31.0625C23.7248 31.31 24.5517 31.6494 25.3205 32.0731C25.7048 32.285 26.1698 32.3037 26.5711 32.1162L30.1448 30.4588C30.6342 30.89 31.0955 31.3531 31.5267 31.8406L29.8711 35.4256C29.6855 35.825 29.7023 36.29 29.9161 36.6744C30.3455 37.4525 30.6886 38.2775 30.9342 39.1325C31.0542 39.5544 31.373 39.8956 31.7873 40.0456L35.4867 41.4012C35.5205 42.0481 35.5205 42.7044 35.4848 43.3494Z" fill="#00FF38"/>
<path id="Vector_4" d="M56.2065 18.9447C56.2308 18.4947 56.2383 18.0391 56.214 17.5834L58.3777 15.6166C58.9683 15.0841 59.2027 14.2403 58.9646 13.4659C58.7002 12.6128 58.3665 11.7878 57.9671 11.0059C57.6108 10.3103 56.9002 9.87719 56.1277 9.87719C56.0977 9.87719 56.0696 9.87719 56.0546 9.87719L53.1371 9.97469C52.8427 9.63906 52.5202 9.31469 52.1827 9.00531L52.3215 6.08031C52.3215 6.06906 52.3215 6.05406 52.3252 6.04094C52.3402 5.24406 51.8958 4.49969 51.2115 4.14906C50.439 3.74219 49.6233 3.39719 48.7702 3.11219C48.5658 3.04844 48.3483 3.01094 48.1308 3.01094C47.5627 3.01094 47.0115 3.24906 46.6177 3.66719L44.6246 5.80281C44.1671 5.77469 43.7171 5.77094 43.2615 5.79344L41.2946 3.62406C40.9065 3.19281 40.344 2.94531 39.759 2.94531C39.5508 2.94531 39.3446 2.97719 39.144 3.03906C38.3058 3.30156 37.4808 3.63156 36.6933 4.03281C35.9715 4.39469 35.5252 5.15219 35.559 5.94719L35.6546 8.86844C35.3133 9.17219 34.9908 9.48906 34.6852 9.82469L31.7621 9.68406C30.9521 9.64469 30.2021 10.0778 29.8346 10.7866C29.4258 11.5609 29.0771 12.3822 28.7977 13.2259C28.7958 13.2353 28.7921 13.2466 28.7883 13.2541C28.5577 14.0134 28.7658 14.8291 29.3546 15.3916L31.4883 17.3809C31.4583 17.8366 31.4546 18.2941 31.4771 18.7478L29.3058 20.7147C28.7171 21.2584 28.4902 22.0966 28.7227 22.8484C28.8483 23.2666 28.9946 23.6753 29.169 24.1084C29.3452 24.5397 29.5252 24.9334 29.7165 25.3084C30.069 26.0153 30.7777 26.4503 31.5671 26.4503C31.5896 26.4503 31.6065 26.4503 31.6365 26.4466L34.5483 26.3491C34.8483 26.6903 35.1708 27.0147 35.5083 27.3222L35.3677 30.2566C35.334 31.0497 35.769 31.8016 36.4683 32.1709C37.2165 32.5684 38.0358 32.9172 38.9115 33.2097C39.1196 33.2809 39.3408 33.3147 39.5602 33.3147C40.1358 33.3147 40.6871 33.0728 41.0733 32.6509L43.0646 30.5247C43.5183 30.5509 43.9721 30.5547 44.4315 30.5322L46.3946 32.6903C46.7883 33.1253 47.3508 33.3728 47.9321 33.3728C48.1365 33.3728 48.3446 33.3447 48.5415 33.2828C49.3852 33.0203 50.214 32.6866 50.9865 32.2928C51.7083 31.9384 52.1583 31.1828 52.1321 30.3672L52.0346 27.4572C52.374 27.1572 52.6983 26.8328 53.004 26.4972L55.9271 26.6378C55.9627 26.6416 55.9946 26.6416 56.0302 26.6416C56.8065 26.6416 57.504 26.2159 57.8583 25.5353C58.2652 24.7722 58.614 23.9547 58.8952 23.0997C59.1446 22.3441 58.9327 21.4984 58.3458 20.9434L56.2065 18.9447ZM53.4071 17.1634C53.4877 17.8872 53.4802 18.6128 53.3921 19.3197C53.3358 19.7584 53.499 20.1991 53.8196 20.5009L56.1183 22.6534C55.9665 23.0697 55.7958 23.4691 55.6065 23.8534L52.4658 23.6997C52.0233 23.6809 51.6015 23.8684 51.3258 24.2097C50.8646 24.7797 50.3415 25.2934 49.7733 25.7397C49.4265 26.0116 49.2315 26.4316 49.2465 26.8741L49.3533 30.0072C48.9596 30.1909 48.5527 30.3578 48.1421 30.5022L46.0252 28.1678C45.7608 27.8809 45.3877 27.7178 45.0033 27.7178C44.9527 27.7178 44.9002 27.7178 44.8533 27.7253C44.1165 27.8041 43.389 27.7966 42.6896 27.7103C42.2546 27.6541 41.8102 27.8153 41.5102 28.1397L39.3615 30.4347C38.9396 30.2809 38.5402 30.1066 38.1558 29.9247L38.3077 26.7803C38.3302 26.3378 38.1371 25.9159 37.7958 25.6384C37.2277 25.1772 36.7177 24.6597 36.2771 24.0972C36.0052 23.7447 35.5833 23.5497 35.139 23.5609L32.0002 23.6697C31.9121 23.4747 31.824 23.2778 31.7377 23.0659C31.6533 22.8616 31.5783 22.6572 31.5071 22.4603L33.8377 20.3434C34.164 20.0472 34.3327 19.6103 34.2821 19.1753C34.2071 18.4628 34.2146 17.7278 34.299 16.9966C34.3515 16.5616 34.1921 16.1247 33.8696 15.8228L31.5727 13.6759C31.7227 13.2634 31.8915 12.8641 32.0827 12.4741L35.2327 12.6222C35.6733 12.6447 36.0952 12.4534 36.3727 12.1122C36.8227 11.5572 37.3477 11.0397 37.9215 10.5822C38.2665 10.3103 38.4596 9.89406 38.4446 9.45344L38.3415 6.31281C38.7371 6.13094 39.144 5.96594 39.5527 5.82156L41.6658 8.15594C41.964 8.48031 42.3971 8.64531 42.8321 8.60219C43.5521 8.52531 44.2871 8.52906 45.0146 8.61719C45.4496 8.66594 45.8883 8.50844 46.1846 8.18594L48.3296 5.89469C48.7402 6.04469 49.1452 6.21906 49.5408 6.40469L49.3908 9.54531C49.3683 9.98406 49.5558 10.4059 49.8933 10.6834C50.4765 11.1541 50.9846 11.6809 51.4196 12.2359C51.6933 12.5809 52.1115 12.7759 52.554 12.7647L55.7002 12.6597C55.8802 13.0516 56.0452 13.4547 56.1896 13.8728L53.8552 15.9897C53.529 16.2878 53.3621 16.7228 53.4071 17.1634Z" fill="#00FF38"/>
</g>
</g>
</svg>
