<svg width="61" height="60" viewBox="0 0 61 60" fill="none" xmlns="http://www.w3.org/2000/svg">
<g id="14909574061638192761 1">
<path id="Vector" d="M44.5625 14.0625V17.8125V21.5625L51.125 25.3125V17.8125L44.5625 14.0625Z" fill="#333333"/>
<path id="Vector_2" d="M51.125 25.3125L57.6875 21.5625V14.0625L51.125 17.8125V25.3125Z" fill="#333333"/>
<path id="Vector_3" d="M30.5 17.8125L37.0625 14.0625V6.5625L30.5 10.3125V17.8125Z" fill="#333333"/>
<path id="Vector_4" d="M30.5 10.3125L23.9375 6.5625V14.0625L30.5 17.8125V10.3125Z" fill="#333333"/>
<path id="Vector_5" d="M3.3125 14.0625V21.5625L9.875 25.3125V17.8125L3.3125 14.0625Z" fill="#333333"/>
<path id="Vector_6" d="M16.4375 17.8125V14.0625L9.875 17.8125V25.3125L16.4375 21.5625V17.8125Z" fill="#333333"/>
<path id="Vector_7" d="M30.5 37.5L37.0625 33.75V26.25L30.5 30V37.5Z" fill="#333333"/>
<path id="Vector_8" d="M23.9375 26.25V33.75L30.5 37.5V30L23.9375 26.25Z" fill="#333333"/>
<path id="Vector_9" d="M51.125 49.6875L57.6875 45.9375V38.4375L51.125 42.1875V49.6875Z" fill="#333333"/>
<path id="Vector_10" d="M44.5625 38.4375V45.9375L51.125 49.6875V42.1875L44.5625 38.4375Z" fill="#333333"/>
<path id="Vector_11" d="M30.5 49.6875V57.1875L37.0625 53.4375V50.625V45.9375L30.5 49.6875Z" fill="#333333"/>
<path id="Vector_12" d="M23.9375 45.9375V50.625V53.4375L30.5 57.1875V49.6875L23.9375 45.9375Z" fill="#333333"/>
<path id="Vector_13" d="M9.875 42.1875L3.3125 38.4375V45.9375L9.875 49.6875L16.4375 45.9375V38.4375L9.875 42.1875Z" fill="#333333"/>
<path id="Vector_14" d="M58.1563 22.3759C58.299 22.2935 58.4175 22.1749 58.4998 22.032C58.5822 21.8891 58.6254 21.7271 58.625 21.5622V14.0622C58.6254 13.8973 58.5822 13.7353 58.4998 13.5924C58.4175 13.4495 58.299 13.3309 58.1563 13.2484L51.5938 9.49845C51.4521 9.41754 51.2919 9.37498 51.1288 9.37498C50.9656 9.37498 50.8054 9.41754 50.6638 9.49845L44.1013 13.2484C43.9571 13.3299 43.8371 13.4481 43.7533 13.5911C43.6697 13.7341 43.6255 13.8965 43.625 14.0622V16.2953L38 13.4828V6.5622C38.0004 6.39732 37.9572 6.23527 37.8748 6.0924C37.7925 5.94952 37.674 5.83088 37.5313 5.74845L30.9688 1.99845C30.8271 1.91755 30.6669 1.875 30.5038 1.875C30.3406 1.875 30.1804 1.91755 30.0388 1.99845L23.4763 5.74845C23.3321 5.82993 23.2121 5.94816 23.1283 6.0911C23.0447 6.23403 23.0005 6.39658 23 6.5622V13.4828L17.375 16.2953V14.0622C17.3753 13.8973 17.3322 13.7353 17.2498 13.5924C17.1675 13.4495 17.049 13.3309 16.9063 13.2484L10.3438 9.49845C10.2021 9.41754 10.0419 9.37498 9.87875 9.37498C9.71565 9.37498 9.55538 9.41754 9.41375 9.49845L2.85125 13.2484C2.70706 13.3299 2.58704 13.4481 2.50338 13.5911C2.41973 13.7341 2.37543 13.8965 2.375 14.0622V21.5622C2.37467 21.7271 2.41785 21.8891 2.50014 22.032C2.58244 22.1749 2.70096 22.2935 2.84375 22.3759L8.9375 25.8559V34.1434L2.84375 37.6235C2.70096 37.7059 2.58244 37.8245 2.50014 37.9674C2.41785 38.1103 2.37467 38.2723 2.375 38.4372V45.9372C2.37467 46.1021 2.41785 46.2641 2.50014 46.407C2.58244 46.5499 2.70096 46.6685 2.84375 46.7509L9.40625 50.5009C9.54788 50.5819 9.70816 50.6244 9.87125 50.6244C10.0344 50.6244 10.1946 50.5819 10.3363 50.5009L16.4122 47.0322L23 51.145V53.4372C22.9997 53.6021 23.0428 53.7641 23.1252 53.907C23.2075 54.0499 23.326 54.1685 23.4688 54.2509L30.0313 58.0009C30.1729 58.0819 30.3331 58.1244 30.4963 58.1244C30.6594 58.1244 30.8196 58.0819 30.9613 58.0009L37.5238 54.2509C37.6679 54.1695 37.7879 54.0513 37.8717 53.9083C37.9553 53.7653 37.9995 53.6029 38 53.4372V51.145L44.5841 47.0294L50.66 50.4981C50.8017 50.579 50.9619 50.6216 51.125 50.6216C51.2881 50.6216 51.4483 50.579 51.59 50.4981L58.1525 46.7481C58.2956 46.6664 58.4146 46.5485 58.4975 46.406C58.5805 46.2636 58.6244 46.102 58.625 45.9372V38.4372C58.6254 38.2723 58.5822 38.1103 58.4998 37.9674C58.4175 37.8245 58.299 37.7059 58.1563 37.6235L52.0625 34.1434V25.8559L58.1563 22.3759ZM52.0625 23.6969V18.3531L56.75 15.6747V21.0184L52.0625 23.6969ZM51.125 41.1072L46.4516 38.4372L51.125 35.7672L55.7984 38.4372L51.125 41.1072ZM45.5 15.6775L50.1875 18.3559V23.6997L45.5 21.0184V15.6775ZM51.125 11.3922L55.7984 14.0622L51.125 16.7322L46.4516 14.0622L51.125 11.3922ZM30.5 48.611L25.8266 45.9372L30.5 43.2672L35.1734 45.9372L30.5 48.611ZM24.875 27.865L29.5625 30.5435V35.8872L24.875 33.2059V27.865ZM31.4375 30.5435L36.125 27.865V33.2088L31.4375 35.8872V30.5435ZM30.5 28.9197L25.8266 26.2497L30.5 23.5797L35.1734 26.2497L30.5 28.9197ZM24.875 8.17751L29.5625 10.8559V16.1997L24.875 13.5184V8.17751ZM31.4375 10.8559L36.125 8.17751V13.5213L31.4375 16.1997V10.8559ZM30.5 3.8922L35.1734 6.5622L30.5 9.2322L25.8266 6.5622L30.5 3.8922ZM10.8125 18.3559L15.5 15.6775V21.0213L10.8125 23.6997V18.3559ZM9.875 11.3922L14.5484 14.0622L9.875 16.7322L5.20156 14.0622L9.875 11.3922ZM4.25 15.6775L8.9375 18.3559V23.6997L4.25 21.0184V15.6775ZM9.875 41.1072L5.20156 38.4372L9.875 35.7672L14.5484 38.4372L9.875 41.1072ZM4.25 40.0525L8.9375 42.7309V48.0747L4.25 45.3934V40.0525ZM10.8125 48.0719V42.7281L15.5 40.0497V45.3934L10.8125 48.0719ZM17.375 45.4169V38.4372C17.3753 38.2723 17.3322 38.1103 17.2498 37.9674C17.1675 37.8245 17.049 37.7059 16.9063 37.6235L10.8125 34.1434V25.8559L16.9063 22.3759C17.049 22.2935 17.1675 22.1749 17.2498 22.032C17.3322 21.8891 17.3753 21.7271 17.375 21.5622V18.3916L23.9084 15.1253L29.5625 18.3559V21.9559L23.4688 25.4359C23.326 25.5184 23.2075 25.637 23.1252 25.7799C23.0428 25.9228 22.9997 26.0848 23 26.2497V33.7497C22.9997 33.9146 23.0428 34.0766 23.1252 34.2195C23.2075 34.3624 23.326 34.481 23.4688 34.5634L29.5625 38.0434V41.6434L23.4688 45.1235C23.326 45.2059 23.2075 45.3245 23.1252 45.4674C23.0428 45.6103 22.9997 45.7723 23 45.9372V48.9372L17.375 45.4169ZM24.875 47.5525L29.5625 50.2309V55.5747L24.875 52.8934V47.5525ZM31.4375 55.5719V50.2281L36.125 47.5497V52.8934L31.4375 55.5719ZM37.5313 45.1235L31.4375 41.6434V38.0434L37.5313 34.5634C37.674 34.481 37.7925 34.3624 37.8748 34.2195C37.9572 34.0766 38.0004 33.9146 38 33.7497V26.2497C38.0004 26.0848 37.9572 25.9228 37.8748 25.7799C37.7925 25.637 37.674 25.5184 37.5313 25.4359L31.4375 21.9559V18.3559L37.0916 15.1253L43.625 18.3916V21.5622C43.6247 21.7271 43.6678 21.8891 43.7502 22.032C43.8325 22.1749 43.951 22.2935 44.0938 22.3759L50.1875 25.8559V34.1434L44.0938 37.6235C43.951 37.7059 43.8325 37.8245 43.7502 37.9674C43.6678 38.1103 43.6247 38.2723 43.625 38.4372V45.4169L38 48.9372V45.9372C38.0004 45.7723 37.9572 45.6103 37.8748 45.4674C37.7925 45.3245 37.674 45.2059 37.5313 45.1235ZM45.5 40.0525L50.1875 42.7309V48.0747L45.5 45.3934V40.0525ZM52.0625 48.0719V42.7281L56.75 40.0497V45.3934L52.0625 48.0719Z" fill="#00FF38"/>
</g>
</svg>
