<svg width="32" height="32" viewBox="0 0 32 32" fill="none" xmlns="http://www.w3.org/2000/svg">
<g id="carbon:location-filled">
<path id="Vector" d="M5.75001 13.0011L5.75001 13.0009C5.75322 10.2832 6.83425 7.67767 8.75597 5.75596C10.6775 3.83444 13.2826 2.75344 16 2.75C18.7174 2.75344 21.3225 3.83444 23.2441 5.75596C25.1658 7.67767 26.2468 10.2832 26.25 13.0009V13.0011C26.2532 15.2191 25.5287 17.3769 24.1876 19.1435L24.1126 19.2423L24.1121 19.2438L24.0332 19.3468C24.0136 19.3723 23.9937 19.3981 23.9747 19.4229C23.9548 19.4487 23.9358 19.4733 23.9187 19.4953L23.8766 19.5494C23.8685 19.5597 23.8641 19.5652 23.8623 19.5674L16 28.8403L8.13706 19.567L8.13707 19.5669L8.13375 19.5631C8.13459 19.5641 8.13354 19.5627 8.13036 19.5587C8.12384 19.5505 8.10839 19.5311 8.08196 19.497C8.04851 19.454 8.00763 19.4009 7.96747 19.3485L7.86024 19.2081L7.82597 19.1631L7.81652 19.1506L7.81407 19.1474L7.81346 19.1466L7.81338 19.1465C7.81335 19.1465 7.81332 19.1464 7.81328 19.1464C6.47158 17.3789 5.74676 15.2201 5.75001 13.0011ZM20.75 13.0009V13C20.75 12.0605 20.4714 11.1422 19.9495 10.361C19.4276 9.57991 18.6857 8.97109 17.8178 8.61157C16.9498 8.25206 15.9947 8.15799 15.0733 8.34127C14.1519 8.52455 13.3056 8.97694 12.6413 9.64124C11.977 10.3055 11.5246 11.1519 11.3413 12.0733C11.158 12.9947 11.2521 13.9498 11.6116 14.8177C11.9711 15.6857 12.5799 16.4275 13.3611 16.9495C14.1422 17.4714 15.0605 17.75 16 17.75L16.0009 17.75C17.26 17.7484 18.467 17.2476 19.3573 16.3573C20.2476 15.467 20.7484 14.26 20.75 13.0009Z" stroke="white" stroke-width="1.5"/>
</g>
</svg>
