<svg width="32" height="32" viewBox="0 0 32 32" fill="none" xmlns="http://www.w3.org/2000/svg">
<g id="fluent:mail-24-filled">
<path id="Vector" d="M30 10.624V22.3281C30.0001 23.5214 29.5237 24.6696 28.6685 25.537C27.8133 26.4043 26.6442 26.9253 25.401 26.9928L25.125 27H4.875C3.62979 27.0001 2.43176 26.5435 1.52665 25.724C0.62155 24.9044 0.077998 23.784 0.00750017 22.5926L0 22.3281V10.624L14.478 17.892C14.6391 17.9728 14.8182 18.0151 15 18.0151C15.1818 18.0151 15.3609 17.9728 15.522 17.892L30 10.624ZM4.875 4H25.125C26.3334 3.99986 27.4987 4.42981 28.3951 5.20645C29.2914 5.98309 29.8548 7.05107 29.976 8.20325L15 15.7214L0.024 8.20325C0.140285 7.09682 0.664575 6.06643 1.50262 5.29729C2.34068 4.52815 3.43752 4.07071 4.596 4.00719L4.875 4H25.125H4.875Z" fill="white"/>
</g>
</svg>
