<svg width="61" height="60" viewBox="0 0 61 60" fill="none" xmlns="http://www.w3.org/2000/svg">
<g id="16775106821600774621 1" clip-path="url(#clip0_23_303)">
<g id="Layer_x0020_1">
<path id="Vector" d="M30.749 4C36.4326 4 41.7061 5.81641 46.0069 8.91016C50.4131 12.0859 53.7998 16.5859 55.5694 21.8477C55.71 22.2812 55.4873 22.7383 55.0537 22.8789C54.96 22.9141 54.8662 22.9258 54.7725 22.9258H6.71388C6.25685 22.9258 5.89357 22.5625 5.89357 22.1055C5.89357 21.9883 5.917 21.8828 5.96388 21.7773C7.73341 16.5508 11.1084 12.0625 15.5029 8.91016C19.8037 5.81641 25.0654 4 30.7608 4H30.749ZM45.0459 10.2344C41.0264 7.33984 36.0811 5.64062 30.749 5.64062C25.4053 5.64062 20.4717 7.33984 16.4522 10.2344C12.6201 12.9883 9.62013 16.8203 7.87404 21.2852H53.624C51.8897 16.8203 48.8779 12.9883 45.0459 10.2344ZM55.5342 38.6172C53.7647 43.8437 50.3897 48.332 45.9951 51.4844C41.6944 54.5781 36.4326 56.3945 30.7373 56.3945C25.0537 56.3945 19.7803 54.5781 15.4795 51.4844C11.0733 48.3086 7.68654 43.8086 5.917 38.5469C5.77638 38.1133 5.99904 37.6562 6.43263 37.5156C6.52638 37.4805 6.62013 37.4687 6.71388 37.4687H54.7725C55.2295 37.4687 55.5928 37.832 55.5928 38.2891C55.5928 38.4062 55.5694 38.5117 55.5225 38.6172H55.5342ZM45.0459 50.1602C48.8779 47.4062 51.8779 43.5742 53.624 39.1094H7.87404C9.60841 43.5742 12.6201 47.4062 16.4522 50.1602C20.4717 53.0547 25.417 54.7539 30.749 54.7539C36.0928 54.7539 41.0264 53.0547 45.0459 50.1602Z" fill="#00FF38"/>
<path id="Vector_2" d="M50.9757 46.8203C48.5382 49.7969 45.4561 52.2227 41.9522 53.8867C38.5538 55.5039 34.7569 56.4062 30.7491 56.4062C26.7413 56.4062 22.9444 55.5039 19.546 53.8867C16.0186 52.2109 12.9249 49.7617 10.4757 46.7734C10.1944 46.4219 10.2413 45.9062 10.5928 45.625C10.6749 45.5547 10.7803 45.5078 10.8741 45.4727C13.9913 44.207 17.2374 43.2344 20.5772 42.5781C23.8819 41.9336 27.2803 41.5938 30.7491 41.5938C34.2178 41.5938 37.628 41.9336 40.921 42.5781C44.296 43.2344 47.5655 44.2305 50.6944 45.5078C51.1163 45.6836 51.3155 46.1523 51.1397 46.5742C51.1046 46.6797 51.046 46.7617 50.9639 46.832L50.9757 46.8203ZM41.2491 52.4102C44.2139 51.0039 46.8624 49.0117 49.0186 46.5859C46.3116 45.5547 43.4991 44.7344 40.5928 44.1719C37.4053 43.5508 34.1007 43.2227 30.7374 43.2227C27.3624 43.2227 24.0694 43.5508 20.8819 44.1719C17.9757 44.7461 15.1632 45.5547 12.4561 46.5859C14.6241 49.0117 17.2608 50.9922 20.2257 52.4102C23.4132 53.9219 26.9757 54.7656 30.7374 54.7656C34.4991 54.7656 38.0616 53.9219 41.2491 52.4102Z" fill="#00FF38"/>
<path id="Vector_3" d="M49.0303 13.8242C46.8624 11.3984 44.2257 9.41797 41.2608 8C38.0733 6.48828 34.5108 5.64453 30.7491 5.64453C26.9874 5.64453 23.4249 6.48828 20.2374 8C17.2725 9.40625 14.6241 11.3984 12.4678 13.8242C15.1749 14.8555 17.9874 15.6758 20.8936 16.2383C24.0811 16.8594 27.3858 17.1875 30.7491 17.1875C34.1241 17.1875 37.4171 16.8594 40.6046 16.2383C43.5108 15.6641 46.3233 14.8555 49.0303 13.8242ZM41.9522 6.52344C45.4561 8.1875 48.5382 10.6133 50.9757 13.5898C51.046 13.6602 51.1046 13.7539 51.1514 13.8477C51.3272 14.2695 51.1163 14.7383 50.7061 14.9141C47.5655 16.1914 44.296 17.1875 40.9327 17.8437C37.628 18.4883 34.2296 18.8281 30.7608 18.8281C27.2921 18.8281 23.8819 18.4883 20.5889 17.8437C17.2491 17.1875 14.003 16.2148 10.8858 14.9492C10.7803 14.9141 10.6866 14.8672 10.6046 14.7969C10.253 14.5156 10.2061 14 10.4874 13.6484C12.9366 10.6484 16.0303 8.21094 19.5577 6.53516C22.9561 4.91797 26.753 4.01562 30.7608 4.01562C34.7686 4.01562 38.5655 4.91797 41.9639 6.53516L41.9522 6.52344Z" fill="#00FF38"/>
<path id="Vector_4" d="M30.7516 4C33.9391 4 36.8454 5.88672 39.2009 9.08594C41.5212 12.2617 43.3024 16.75 44.2282 21.9648C44.3102 22.4102 44.0055 22.832 43.5602 22.9141C43.5134 22.9258 43.4548 22.9258 43.4079 22.9258H18.0837C17.6266 22.9258 17.2634 22.5625 17.2634 22.1055C17.2634 22.0469 17.2751 21.9883 17.2868 21.9297C18.2126 16.7266 19.9938 12.2617 22.3024 9.09766C24.6462 5.89844 27.5641 4.01172 30.7516 4.01172V4ZM37.8766 10.0586C35.8376 7.28125 33.3766 5.64062 30.7516 5.64062C28.1266 5.64062 25.6657 7.28125 23.6266 10.0586C21.5876 12.8359 19.9938 16.7383 19.0798 21.2969H42.4352C41.5212 16.7383 39.9157 12.8477 37.8884 10.0586H37.8766ZM44.2165 38.4766C43.2907 43.668 41.5095 48.1445 39.2009 51.3086C36.8571 54.5078 33.9391 56.3945 30.7516 56.3945C27.5641 56.3945 24.6579 54.5078 22.3024 51.3086C19.9821 48.1328 18.2009 43.6445 17.2751 38.4297C17.193 37.9844 17.4977 37.5625 17.943 37.4805C17.9899 37.4687 18.0485 37.4687 18.0954 37.4687H43.4196C43.8766 37.4687 44.2399 37.832 44.2399 38.2891C44.2399 38.3477 44.2282 38.4062 44.2165 38.4648V38.4766ZM37.8766 50.3477C39.9157 47.5703 41.5095 43.668 42.4235 39.1094H19.068C19.9821 43.668 21.5876 47.5586 23.6149 50.3477C25.654 53.125 28.1149 54.7656 30.7399 54.7656C33.3649 54.7656 35.8259 53.125 37.8649 50.3477H37.8766Z" fill="#00FF38"/>
<path id="Vector_5" d="M1.57031 21.2891H59.9297H60.75V22.1094V38.293V39.1133H59.9297H1.57031H0.75V38.293V22.1094V21.2891H1.57031ZM59.1211 22.9297H2.39062V37.4844H59.1211V22.9297Z" fill="#00FF38"/>
<path id="Vector_6" d="M8.76953 34.9609L5.85156 25.4453H7.51562L9.02734 30.9414L9.58984 32.9805C9.61328 32.875 9.77734 32.2187 10.082 31.0117L11.5938 25.4336H13.2578L14.6875 30.9531L15.168 32.7695L15.707 30.9297L17.3359 25.4219H18.9062L15.9297 34.9375H14.2539L12.7422 29.2305L12.3672 27.6016L10.4453 34.9258H8.75781L8.76953 34.9609ZM27.1328 34.9609L24.2148 25.4453H25.8789L27.3906 30.9414L27.9531 32.9805C27.9766 32.875 28.1406 32.2187 28.4453 31.0117L29.957 25.4336H31.6211L33.0508 30.9531L33.5312 32.7695L34.0703 30.9297L35.6992 25.4219H37.2695L34.293 34.9375H32.6172L31.1055 29.2305L30.7305 27.6016L28.8086 34.9258H27.1211L27.1328 34.9609ZM45.4961 34.9609L42.5781 25.4453H44.2422L45.7539 30.9414L46.3164 32.9805C46.3398 32.875 46.5039 32.2187 46.8086 31.0117L48.3203 25.4336H49.9844L51.4141 30.9531L51.8945 32.7695L52.4336 30.9297L54.0625 25.4219H55.6328L52.6562 34.9375H50.9805L49.4688 29.2305L49.0938 27.6016L47.1719 34.9258H45.4844L45.4961 34.9609Z" fill="#00FF38"/>
</g>
</g>
<defs>
<clipPath id="clip0_23_303">
<rect width="60" height="60" fill="white" transform="translate(0.75)"/>
</clipPath>
</defs>
</svg>
