<svg width="32" height="32" viewBox="0 0 32 32" fill="none" xmlns="http://www.w3.org/2000/svg">
<g id="Frame">
<path id="Vector" d="M3 30L4.90693 23.0666C3.73022 21.0371 3.11191 18.7365 3.11304 16.3774C3.11643 9.00187 9.14695 3 16.5565 3C20.1522 3.00113 23.5275 4.395 26.0663 6.924C28.604 9.453 30.0011 12.8145 30 16.3898C29.9966 23.7664 23.9661 29.7683 16.5565 29.7683C14.3071 29.7671 12.0904 29.2057 10.127 28.1392L3 30ZM10.457 25.7171C12.3515 26.8365 14.1601 27.507 16.552 27.5081C22.7102 27.5081 27.7268 22.5199 27.7302 16.3875C27.7325 10.2428 22.7396 5.26125 16.561 5.259C10.3983 5.259 5.38508 10.2473 5.38282 16.3785C5.38169 18.8816 6.11869 20.7559 7.35644 22.7167L6.2272 26.8207L10.457 25.7171ZM23.3286 19.5701C23.2449 19.4306 23.0211 19.3474 22.6843 19.1797C22.3485 19.0121 20.6971 18.2032 20.3885 18.0919C20.081 17.9805 19.8572 17.9242 19.6323 18.2595C19.4084 18.5936 18.7641 19.3474 18.5686 19.5701C18.373 19.7929 18.1763 19.821 17.8406 19.6534C17.5049 19.4858 16.422 19.1336 15.139 17.994C14.1409 17.1075 13.4661 16.0129 13.2705 15.6776C13.075 15.3435 13.2502 15.1624 13.4175 14.9959C13.569 14.8462 13.7532 14.6055 13.9216 14.4097C14.0923 14.2162 14.1477 14.0768 14.2607 13.8529C14.3726 13.6301 14.3173 13.4344 14.2325 13.2668C14.1477 13.1003 13.4763 11.4544 13.1971 10.785C12.9235 10.1336 12.6466 10.2214 12.4408 10.2112L11.7965 10.2C11.5727 10.2 11.2087 10.2832 10.9013 10.6185C10.5938 10.9537 9.7257 11.7615 9.7257 13.4074C9.7257 15.0533 10.9295 16.6429 11.0968 16.8656C11.2653 17.0884 13.465 20.4656 16.8346 21.9135C17.636 22.2577 18.2622 22.4636 18.7494 22.6177C19.5543 22.872 20.2867 22.836 20.8655 22.7505C21.5109 22.6549 22.8527 21.9416 23.133 21.1609C23.4133 20.379 23.4133 19.7096 23.3286 19.5701Z" fill="white"/>
</g>
</svg>
